<svg width="300" height="300" viewBox="0 0 300 300" fill="none" xmlns="http://www.w3.org/2000/svg">
<g filter="url(#filter0_d_813_87)">
<rect x="50" y="40" width="200" height="200" rx="100" fill="white"/>
<path d="M101.1 97.3571C87.5962 110.861 87.5963 132.754 101.1 146.257L145.925 191.082C148.175 193.333 151.824 193.333 154.075 191.082L198.9 146.257C212.404 132.754 212.403 110.86 198.9 97.3571C185.397 83.8537 163.503 83.8536 150 97.3571C136.496 83.8537 114.603 83.8536 101.1 97.3571Z" fill="#EB3741"/>
<path fill-rule="evenodd" clip-rule="evenodd" d="M148.532 44.1666C146.231 44.1666 144.365 46.0321 144.365 48.3333V68.1862C144.365 70.4874 146.231 72.3529 148.532 72.3529H151.473C153.774 72.3529 155.64 70.4874 155.64 68.1862V48.3333C155.64 46.0321 153.774 44.1666 151.473 44.1666H148.532ZM148.533 207.647C146.231 207.647 144.366 209.512 144.366 211.813V231.666C144.366 233.968 146.231 235.833 148.533 235.833H151.474C153.775 235.833 155.64 233.968 155.64 231.666V211.813C155.64 209.512 153.775 207.647 151.474 207.647H148.533ZM81.1985 79.1675C79.5713 77.5404 79.5713 74.9022 81.1985 73.275L83.2782 71.1953C84.9054 69.5681 87.5435 69.5681 89.1707 71.1953L103.209 85.2334C104.836 86.8606 104.836 89.4988 103.209 91.126L101.129 93.2057C99.502 94.8329 96.8638 94.8329 95.2366 93.2057L81.1985 79.1675ZM196.798 188.873C195.171 190.5 195.171 193.138 196.798 194.765L210.836 208.803C212.463 210.43 215.102 210.43 216.729 208.803L218.808 206.723C220.436 205.096 220.436 202.458 218.808 200.831L204.77 186.793C203.143 185.166 200.505 185.166 198.878 186.793L196.798 188.873ZM58.3333 145.638C56.0322 145.638 54.1667 143.772 54.1667 141.471V138.53C54.1667 136.229 56.0322 134.363 58.3334 134.363H78.1863C80.4875 134.363 82.3529 136.229 82.3529 138.53V141.471C82.3529 143.772 80.4875 145.638 78.1863 145.638H58.3333ZM217.644 141.471C217.644 143.772 219.509 145.638 221.811 145.638H241.664C243.965 145.638 245.83 143.772 245.83 141.471V138.53C245.83 136.229 243.965 134.363 241.664 134.363H221.811C219.509 134.363 217.644 136.229 217.644 138.53V141.471ZM89.1686 208.805C87.5415 210.432 84.9033 210.432 83.2761 208.805L81.1964 206.725C79.5692 205.098 79.5692 202.46 81.1964 200.833L95.2345 186.795C96.8617 185.167 99.4999 185.167 101.127 186.795L103.207 188.874C104.834 190.502 104.834 193.14 103.207 194.767L89.1686 208.805ZM198.876 93.2075C200.503 94.8347 203.141 94.8347 204.768 93.2075L218.806 79.1694C220.434 77.5422 220.434 74.904 218.806 73.2768L216.727 71.1971C215.099 69.5699 212.461 69.5699 210.834 71.1971L196.796 85.2352C195.169 86.8624 195.169 89.5006 196.796 91.1278L198.876 93.2075Z" fill="#EB3741" fill-opacity="0.1"/>
</g>
<defs>
<filter id="filter0_d_813_87" x="0" y="0" width="300" height="300" filterUnits="userSpaceOnUse" color-interpolation-filters="sRGB">
<feFlood flood-opacity="0" result="BackgroundImageFix"/>
<feColorMatrix in="SourceAlpha" type="matrix" values="0 0 0 0 0 0 0 0 0 0 0 0 0 0 0 0 0 0 127 0" result="hardAlpha"/>
<feOffset dy="10"/>
<feGaussianBlur stdDeviation="25"/>
<feComposite in2="hardAlpha" operator="out"/>
<feColorMatrix type="matrix" values="0 0 0 0 0.545098 0 0 0 0 0.545098 0 0 0 0 0.545098 0 0 0 0.1 0"/>
<feBlend mode="normal" in2="BackgroundImageFix" result="effect1_dropShadow_813_87"/>
<feBlend mode="normal" in="SourceGraphic" in2="effect1_dropShadow_813_87" result="shape"/>
</filter>
</defs>
</svg>
