<svg width="51" height="51" viewBox="0 0 51 51" fill="none" xmlns="http://www.w3.org/2000/svg">
<g clip-path="url(#clip0_1_551)">
<path d="M50.0528 41.4098H1.77715C1.30107 41.4098 0.915039 41.0237 0.915039 40.5477V9.51323C0.915039 9.03716 1.30107 8.65112 1.77715 8.65112H50.0529C50.529 8.65112 50.915 9.03716 50.915 9.51323V40.5477C50.9149 41.0238 50.5289 41.4098 50.0528 41.4098Z" fill="#FF4B55"/>
<path d="M13.8752 25.0303C13.8752 28.8418 16.9643 31.931 20.7724 31.931C22.1916 31.931 23.5003 31.4949 24.5903 30.7557C24.7554 30.6438 24.9462 30.8596 24.808 31.0035C23.2441 32.6324 21.0541 33.6511 18.6173 33.6511C13.6704 33.6511 9.69718 29.4809 10.0182 24.463C10.2985 20.0822 13.9306 16.5646 18.3179 16.4149C20.8716 16.3277 23.1747 17.3598 24.802 19.0517C24.9416 19.1968 24.7512 19.4159 24.5846 19.303C23.4957 18.5655 22.1891 18.1298 20.7724 18.1298C16.9644 18.1298 13.8752 21.2258 13.8752 25.0303Z" fill="#F5F5F5"/>
<path d="M29.596 23.8443L28.2447 22.0766C28.1692 21.9778 28.0112 22.032 28.0124 22.1564L28.0321 24.3813L25.9334 25.1202C25.816 25.1615 25.8189 25.3284 25.9375 25.3658L28.0596 26.0346L28.1138 28.259C28.1168 28.3833 28.2766 28.4322 28.3487 28.3309L29.6405 26.5194L31.7728 27.1552C31.8919 27.1908 31.9878 27.0542 31.9138 26.9542L30.59 25.1657L31.8536 23.3344C31.9243 23.232 31.8239 23.0986 31.706 23.1381L29.596 23.8443Z" fill="#F5F5F5"/>
</g>
<defs>
<clipPath id="clip0_1_551">
<rect width="50" height="50" fill="white" transform="translate(0.914062 0.0305176)"/>
</clipPath>
</defs>
</svg>
